<svg width="40" height="40" viewBox="0 0 40 40" fill="none" xmlns="http://www.w3.org/2000/svg">
<path d="M30 30.8333C29.337 30.8333 28.7011 30.5699 28.2322 30.1011C27.7634 29.6322 27.5 28.9963 27.5 28.3333C27.5 27.6702 27.7634 27.0344 28.2322 26.5655C28.7011 26.0967 29.337 25.8333 30 25.8333C30.663 25.8333 31.2989 26.0967 31.7678 26.5655C32.2366 27.0344 32.5 27.6702 32.5 28.3333C32.5 28.9963 32.2366 29.6322 31.7678 30.1011C31.2989 30.5699 30.663 30.8333 30 30.8333ZM32.5 15.8333L35.7667 20H28.3333V15.8333H32.5ZM10 30.8333C9.33696 30.8333 8.70107 30.5699 8.23223 30.1011C7.76339 29.6322 7.5 28.9963 7.5 28.3333C7.5 27.6702 7.76339 27.0344 8.23223 26.5655C8.70107 26.0967 9.33696 25.8333 10 25.8333C10.663 25.8333 11.2989 26.0967 11.7678 26.5655C12.2366 27.0344 12.5 27.6702 12.5 28.3333C12.5 28.9963 12.2366 29.6322 11.7678 30.1011C11.2989 30.5699 10.663 30.8333 10 30.8333ZM33.3333 13.3333H28.3333V6.66663H5C3.15 6.66663 1.66667 8.14996 1.66667 9.99996V28.3333H5C5 29.6594 5.52678 30.9311 6.46447 31.8688C7.40215 32.8065 8.67392 33.3333 10 33.3333C11.3261 33.3333 12.5979 32.8065 13.5355 31.8688C14.4732 30.9311 15 29.6594 15 28.3333H25C25 29.6594 25.5268 30.9311 26.4645 31.8688C27.4021 32.8065 28.6739 33.3333 30 33.3333C31.3261 33.3333 32.5978 32.8065 33.5355 31.8688C34.4732 30.9311 35 29.6594 35 28.3333H38.3333V20L33.3333 13.3333Z" fill="black"/>
</svg>
