<?xml version="1.0" encoding="utf-8"?>
<!-- Generator: Adobe Illustrator 25.2.3, SVG Export Plug-In . SVG Version: 6.00 Build 0)  -->
<svg version="1.1" id="Layer_1" xmlns="http://www.w3.org/2000/svg" xmlns:xlink="http://www.w3.org/1999/xlink" x="0px" y="0px"
	 viewBox="0 0 1920 346" style="enable-background:new 0 0 1920 346;" xml:space="preserve">
<style type="text/css">
	.st0{display:none;fill:#061014;}
	.st1{fill:#CE0037;}
</style>
<rect y="-367" class="st0" width="1920" height="1080"/>
<g>
	<g>
		<g>
			<path d="M775.71,137.59v-25.61c0-1.23-1-2.22-2.22-2.22H453.1c-0.69,0-1.33,0.32-1.76,0.86L430,138.06
				c-0.3,0.39-0.47,0.87-0.47,1.37v45.47c0,1.23,1,2.22,2.22,2.22h122.88c1.85,0,2.89,2.13,1.76,3.59l-10.61,13.63
				c-0.42,0.54-1.07,0.86-1.76,0.86H431.7c-1.23,0-2.22,1-2.22,2.22v25.61c0,1.23,1,2.22,2.22,2.22h140.86
				c0.69,0,1.33-0.32,1.76-0.86l21.35-27.45c0.3-0.39,0.47-0.87,0.47-1.37v-45.47c0-1.23-1-2.22-2.22-2.22H471.03
				c-1.85,0-2.89-2.13-1.76-3.59l10.6-13.63c0.42-0.54,1.07-0.86,1.76-0.86h291.85C774.71,139.82,775.71,138.82,775.71,137.59z"/>
			<path d="M829.56,233.04v-91c0-1.23,1-2.22,2.22-2.22h72.79c0.68,0,1.33,0.31,1.75,0.85l17.1,21.84c0.31,0.39,0.47,0.87,0.47,1.37
				v69.16c0,1.23,1,2.22,2.22,2.22h31.77c1.23,0,2.22-1,2.22-2.22v-92.46c0-0.49-0.16-0.98-0.47-1.37l-22.24-28.6
				c-0.42-0.54-1.07-0.86-1.76-0.86H795.57c-1.23,0-2.22,1-2.22,2.22v91c0,1.23-1,2.22-2.22,2.22H666.92
				c-0.69,0-1.34-0.32-1.77-0.87l-10.61-13.84c-1.12-1.46-0.08-3.58,1.77-3.58h117.18c1.23,0,2.22-1,2.22-2.22v-24.57
				c0-1.23-1-2.22-2.22-2.22H617.04c-1.23,0-2.22,1-2.22,2.22v45.47c0,0.49,0.16,0.98,0.47,1.37l21.35,27.45
				c0.42,0.54,1.07,0.86,1.76,0.86h188.95C828.57,235.26,829.56,234.27,829.56,233.04z"/>
			<path d="M1379.17,111.98v25.61c0,1.23,1,2.22,2.22,2.22h159.48c1.23,0,2.22-1,2.22-2.22v-25.61c0-1.23-1-2.22-2.22-2.22h-159.48
				C1380.16,109.76,1379.17,110.75,1379.17,111.98z"/>
			<path d="M1538.71,205.2h-107.44c-0.69,0-1.34-0.32-1.77-0.87l-10.61-13.84c-1.12-1.46-0.08-3.58,1.77-3.58h120.21
				c1.23,0,2.22-1,2.22-2.22v-24.57c0-1.23-1-2.22-2.22-2.22h-159.48c-1.23,0-2.22,1-2.22,2.22v45.47c0,0.49,0.16,0.98,0.47,1.37
				l21.35,27.45c0.42,0.54,1.07,0.86,1.76,0.86h155.89c1.85,0,2.89-2.13,1.76-3.59l-19.92-25.61
				C1540.04,205.52,1539.39,205.2,1538.71,205.2z"/>
			<path d="M1337.07,109.76h-140.08c-1.23,0-2.22,1-2.22,2.22v121.06c0,1.23,1,2.22,2.22,2.22l31.77,0c1.23,0,2.22-1,2.22-2.22v-91
				c0-1.23,1-2.22,2.22-2.22h72.79c0.68,0,1.33,0.31,1.75,0.85l17.1,21.84c0.31,0.39,0.47,0.87,0.47,1.37v69.16
				c0,1.23,1,2.22,2.22,2.22h31.77c1.23,0,2.22-1,2.22-2.22v-92.46c0-0.49-0.16-0.98-0.47-1.37l-22.24-28.6
				C1338.4,110.07,1337.75,109.76,1337.07,109.76z"/>
			<path d="M958.63,111.77l21.15,27.19c0.42,0.54,1.07,0.86,1.76,0.86h38.5c1.23,0,2.22,1,2.22,2.22v91c0,1.23,1,2.22,2.22,2.22
				h31.77c1.23,0,2.22-1,2.22-2.22v-91c0-1.23,1-2.22,2.22-2.22h60.74c1.23,0,2.22-1,2.22-2.22v-25.61c0-1.23-1-2.22-2.22-2.22
				H959.61C958.58,109.76,957.99,110.95,958.63,111.77z"/>
			<path d="M1140.91,111.98v121.06c0,1.23,1,2.22,2.22,2.22h31.77c1.23,0,2.22-1,2.22-2.22V111.98c0-1.23-1-2.22-2.22-2.22h-31.77
				C1141.9,109.76,1140.91,110.75,1140.91,111.98z"/>
			<path d="M1722.72,205.2h-103.25c-0.69,0-1.33-0.32-1.76-0.86l-16.99-21.83c-0.3-0.39-0.47-0.87-0.47-1.37v-69.16
				c0-1.23-1-2.22-2.22-2.22h-31.77c-1.23,0-2.22,1-2.22,2.22v93.61c0,0.49,0.16,0.98,0.47,1.37l21.35,27.45
				c0.42,0.54,1.07,0.86,1.76,0.86h135.1c1.23,0,2.22-1,2.22-2.22v-25.61C1724.94,206.2,1723.95,205.2,1722.72,205.2z"/>
			<path d="M1907.9,138.11v-26.65c0-0.94-0.76-1.7-1.7-1.7h-141.58c-0.53,0-1.02,0.24-1.34,0.66l-21.62,27.79
				c-0.23,0.3-0.36,0.67-0.36,1.05v46.17c0,0.94,0.76,1.7,1.7,1.7h124.47c1.42,0,2.22,1.63,1.34,2.75l-11.42,14.67
				c-0.32,0.41-0.82,0.66-1.34,0.66l-113.05,0c-0.94,0-1.7,0.76-1.7,1.7v26.65c0,0.94,0.76,1.7,1.7,1.7h141.58
				c0.53,0,1.02-0.24,1.34-0.66l21.62-27.79c0.23-0.3,0.36-0.67,0.36-1.05V159.6c0-0.94-0.76-1.7-1.7-1.7h-124.47
				c-1.42,0-2.22-1.63-1.34-2.75l11.42-14.67c0.32-0.41,0.82-0.66,1.34-0.66h113.05C1907.14,139.82,1907.9,139.05,1907.9,138.11z"/>
		</g>
	</g>
	<path class="st1" d="M331.26,10.51H16.74c-2.62,0-4.74,2.12-4.74,4.74v314.52c0,2.62,2.12,4.74,4.74,4.74h314.52
		c2.62,0,4.74-2.12,4.74-4.74V15.25C336.01,12.63,333.88,10.51,331.26,10.51z M136.94,98.84l2.03-3.53l6.17-10.72
		c0.73-1.26,2.07-2.04,3.52-2.04l13.58-0.01l-0.01-0.03L174,82.53l11.78-0.01l-0.01,0.03l13.58,0.01c1.45,0,2.8,0.78,3.52,2.04
		l6.17,10.72l2.03,3.53c0.73,1.26,0.72,2.81,0,4.07l-15.63,27l-9.7,16.81c-0.73,1.26-2.07,2.03-3.52,2.03h-3.11h-4.06h-1.02H174
		h-1.02h-4.06h-3.11c-1.45,0-2.8-0.78-3.52-2.03l-9.7-16.81l-15.63-27C136.22,101.65,136.21,100.1,136.94,98.84z M264.59,150.45
		l-38.2,66l-23.72,41.08c-1.78,3.08-5.06,4.97-8.61,4.97h-7.61h-9.92h-2.52H174h-2.52h-9.92h-7.61c-3.55,0-6.84-1.9-8.61-4.97
		l-23.72-41.08l-38.2-66c-1.78-3.07-1.78-6.87-0.01-9.94l4.97-8.62l15.08-26.19c1.77-3.08,5.05-4.98,8.61-4.98l9.1-0.01l-3.97,6.89
		l-3.3,5.72c-1.18,2.04-1.17,4.56,0.01,6.6l25.35,43.79l15.74,27.25c1.18,2.04,3.36,3.3,5.71,3.3h5.05h6.58H174h0.01h1.67h6.58h5.05
		c2.36,0,4.54-1.26,5.71-3.3l15.74-27.25l25.35-43.79c1.18-2.04,1.18-4.56,0.01-6.6l-3.29-5.72l-3.97-6.89l9.1,0.01
		c3.55,0,6.83,1.9,8.61,4.98l15.08,26.19l4.97,8.62C266.38,143.58,266.37,147.37,264.59,150.45z"/>
</g>
</svg>
